
      <svg data-logo="logo" xmlns="http://www.w3.org/2000/svg" viewBox="0 0 269 46">
        <g id="logogram" transform="translate(0, 2.5) rotate(0) "><path d="M18.529 14.2867C19.7573 13.9362 19.8794 10.5388 18.8016 6.69839C17.7239 2.85797 15.8544 0.0288177 14.6261 0.379292C13.3977 0.729766 13.2757 4.12714 14.3534 7.96759C15.4312 11.8079 17.3007 14.6371 18.529 14.2867Z" fill="black"/><path d="M26.1248 8.08707C27.2775 4.26882 27.2219 0.869674 26.0007 0.49485C24.7794 0.120017 22.855 2.91144 21.7023 6.72968C20.5497 10.5479 20.6052 13.9471 21.8265 14.3219C23.0477 14.6967 24.9722 11.9053 26.1248 8.08707Z" fill="black"/><path d="M15.7317 16.0579C16.5771 15.0934 14.858 12.1689 11.8921 9.5258C8.92614 6.88272 5.83646 5.52194 4.99109 6.48642C4.14571 7.45092 5.86478 10.3754 8.83075 13.0185C11.7967 15.6616 14.8864 17.0224 15.7317 16.0579Z" fill="black"/><path d="M31.5523 13.2463C34.5689 10.6622 36.3444 7.77208 35.5178 6.79115C34.6913 5.81019 31.5758 7.10985 28.5592 9.6939C25.5426 12.278 23.7672 15.1681 24.5937 16.1491C25.4202 17.13 28.5357 15.8304 31.5523 13.2463Z" fill="black"/><path d="M14.3271 19.0886C14.5213 17.8164 11.5072 16.2928 7.5951 15.6857C3.68285 15.0785 0.353953 15.6177 0.15976 16.8899C-0.0344332 18.1621 2.97961 19.6855 6.89183 20.2927C10.804 20.8999 14.1329 20.3607 14.3271 19.0886Z" fill="black"/><path d="M33.3469 20.5473C37.2702 20.018 40.3134 18.5548 40.1441 17.2789C39.9749 16.0031 36.6572 15.398 32.7338 15.9271C28.8106 16.4564 25.7673 17.9197 25.9366 19.1955C26.1059 20.4713 29.4235 21.0765 33.3469 20.5473Z" fill="black"/><path d="M9.1521 27.4532C12.7688 25.8311 15.28 23.5628 14.7611 22.3867C14.2424 21.2106 10.89 21.5722 7.2733 23.1943C3.65667 24.8164 1.1454 27.0847 1.66421 28.2608C2.18302 29.4369 5.53546 29.0753 9.1521 27.4532Z" fill="black"/><path d="M38.408 28.6255C38.9497 27.46 36.4833 25.1421 32.8991 23.4484C29.3149 21.7547 25.9702 21.3266 25.4285 22.4921C24.8868 23.6577 27.3532 25.9755 30.9374 27.6692C34.5215 29.3629 37.8663 29.7911 38.408 28.6255Z" fill="black"/><path d="M14.9029 32.2399C17.0755 28.9036 17.9717 25.6262 16.9047 24.9198C15.8375 24.2133 13.2112 26.3451 11.0387 29.6814C8.86604 33.0177 7.96985 36.2949 9.03689 37.0015C10.104 37.708 12.7302 35.5762 14.9029 32.2399Z" fill="black"/><path d="M30.8687 37.2253C31.9494 36.5402 31.1175 33.2456 29.0106 29.8668C26.9036 26.488 24.3195 24.3044 23.2388 24.9895C22.1582 25.6746 22.9901 28.9692 25.097 32.348C27.2039 35.7268 29.7881 37.9105 30.8687 37.2253Z" fill="black"/><path d="M22.3061 33.1463C22.3448 29.1553 21.3414 25.9098 20.0649 25.8972C18.7884 25.8846 17.7222 29.1098 17.6835 33.1007C17.6448 37.0918 18.6483 40.3374 19.9247 40.3499C21.2013 40.3625 22.2675 37.1374 22.3061 33.1463Z" fill="black"/></g>
        <g id="logotype" transform="translate(44, 1)"><path fill="#007AFF" d="M14.38 35.24L14.38 35.24Q11.75 35.24 9.69 34.35Q7.62 33.46 6.29 31.83Q4.96 30.20 4.50 28.04L4.50 28.04L10.28 26.74Q10.67 28.45 11.68 29.43Q12.70 30.41 14.13 30.41L14.13 30.41Q15.64 30.41 16.46 29.79Q17.28 29.16 17.28 28.11L17.28 28.11Q17.28 27.16 16.62 26.55Q15.95 25.93 14.87 25.52Q13.78 25.09 12.47 24.67Q11.16 24.25 9.84 23.73Q8.53 23.20 7.43 22.42Q6.33 21.63 5.66 20.44Q5.00 19.25 5.00 17.50L5.00 17.50Q5.00 15.19 6.12 13.54Q7.24 11.90 9.25 11.04Q11.26 10.18 13.92 10.18L13.92 10.18Q16.34 10.18 18.23 10.99Q20.12 11.79 21.31 13.21Q22.50 14.63 22.85 16.55L22.85 16.55L17.11 18.06Q16.83 16.55 15.95 15.77Q15.08 14.98 13.78 14.98L13.78 14.98Q13.01 14.98 12.38 15.24Q11.75 15.50 11.38 15.99Q11.02 16.48 11.02 17.22L11.02 17.22Q11.02 18.13 11.68 18.72Q12.35 19.32 13.47 19.76Q14.59 20.20 15.92 20.60Q17.25 21 18.56 21.52Q19.87 22.05 20.97 22.84Q22.08 23.63 22.76 24.80Q23.44 25.97 23.44 27.72L23.44 27.72Q23.44 29.79 22.27 31.48Q21.10 33.18 19.07 34.21Q17.04 35.24 14.38 35.24ZM38.07 35.24L38.07 35.24Q35.87 35.24 34.19 34.04Q32.51 32.83 31.81 30.70L31.81 30.70L31.81 44.27L25.89 44.27L25.89 15.47L31.81 15.47L31.81 19.81Q32.51 17.64 34.19 16.43Q35.87 15.22 38.07 15.22L38.07 15.22Q40.63 15.22 42.52 16.55Q44.41 17.88 45.44 20.16Q46.47 22.43 46.47 25.23L46.47 25.23Q46.47 28.07 45.44 30.33Q44.41 32.59 42.52 33.91Q40.63 35.24 38.07 35.24ZM36.15 30.06L36.15 30.06Q37.30 30.06 38.30 29.50Q39.30 28.95 39.87 27.86Q40.45 26.77 40.45 25.23L40.45 25.23Q40.45 23.73 39.87 22.64Q39.30 21.56 38.30 20.96Q37.30 20.37 36.15 20.37L36.15 20.37Q34.99 20.37 33.99 20.96Q33.00 21.56 32.40 22.64Q31.81 23.73 31.81 25.23L31.81 25.23Q31.81 26.77 32.40 27.86Q33.00 28.95 33.99 29.50Q34.99 30.06 36.15 30.06ZM54.38 35L48.47 35L48.47 15.47L54.38 15.47L54.38 35ZM54.38 26.60L53.47 26.60L54.38 20.20Q55.01 17.92 56.59 16.61Q58.16 15.29 60.61 15.29L60.61 15.29L60.61 21.45Q60.23 21.38 59.88 21.35Q59.53 21.31 59.18 21.31L59.18 21.31Q57.88 21.31 56.80 21.93Q55.71 22.54 55.05 23.71Q54.38 24.88 54.38 26.60L54.38 26.60ZM71.84 35.24L71.84 35.24Q69.71 35.24 67.77 34.58Q65.83 33.91 64.34 32.64Q62.85 31.36 61.99 29.54Q61.13 27.72 61.13 25.38L61.13 25.38Q61.13 23.13 61.96 21.28Q62.78 19.42 64.20 18.06Q65.62 16.69 67.49 15.96Q69.36 15.22 71.46 15.22L71.46 15.22Q73.17 15.22 74.73 15.68Q76.29 16.13 77.53 17.01Q78.78 17.88 79.49 19.07Q80.21 20.27 80.21 21.73L80.21 21.73Q80.21 23.59 79.16 24.81Q78.11 26.04 76.41 26.74Q74.72 27.44 72.70 27.74Q70.69 28.04 68.73 28L68.73 28Q68.48 28 68.15 27.98Q67.82 27.96 67.54 27.95Q67.26 27.93 67.12 27.93L67.12 27.93Q67.33 28.73 68.01 29.38Q68.70 30.03 69.75 30.41Q70.80 30.80 71.92 30.80L71.92 30.80Q73.03 30.80 74.07 30.41Q75.10 30.03 75.94 29.43Q76.78 28.84 77.38 28.11L77.38 28.11L81.16 31.08Q80.11 32.48 78.60 33.41Q77.09 34.34 75.36 34.79Q73.63 35.24 71.84 35.24ZM68.77 24.11L68.77 24.11Q69.71 24.11 70.72 24.01Q71.74 23.91 72.60 23.64Q73.45 23.38 74.00 22.91Q74.54 22.43 74.54 21.70L74.54 21.70Q74.54 21.10 74.12 20.65Q73.70 20.20 73 19.95Q72.30 19.70 71.50 19.70L71.50 19.70Q70.09 19.70 69.05 20.37Q68.00 21.03 67.44 22.03Q66.88 23.03 66.81 24.04L66.81 24.04Q67.12 24.08 67.66 24.10Q68.20 24.11 68.77 24.11ZM89.98 35.24L89.98 35.24Q87.42 35.24 85.51 33.91Q83.61 32.59 82.57 30.33Q81.54 28.07 81.54 25.23L81.54 25.23Q81.54 22.43 82.57 20.16Q83.61 17.88 85.51 16.55Q87.42 15.22 89.98 15.22L89.98 15.22Q92.22 15.22 93.88 16.43Q95.54 17.64 96.20 19.81L96.20 19.81L96.20 15.47L102.12 15.47L102.12 35L99.22 35Q97.81 35 97.01 34.21Q96.20 33.42 96.20 32.02L96.20 32.02L96.20 30.70Q95.54 32.83 93.88 34.04Q92.22 35.24 89.98 35.24ZM91.90 30.06L91.90 30.06Q93.06 30.06 94.03 29.50Q95.02 28.95 95.61 27.86Q96.20 26.77 96.20 25.23L96.20 25.23Q96.20 23.73 95.61 22.64Q95.02 21.56 94.03 20.96Q93.06 20.37 91.90 20.37L91.90 20.37Q90.71 20.37 89.73 20.96Q88.75 21.56 88.17 22.64Q87.59 23.73 87.59 25.23L87.59 25.23Q87.59 26.77 88.17 27.86Q88.75 28.95 89.75 29.50Q90.75 30.06 91.90 30.06ZM112.52 35.24L112.52 35.24Q109.96 35.24 108.05 33.91Q106.15 32.59 105.11 30.33Q104.08 28.07 104.08 25.23L104.08 25.23Q104.08 22.43 105.11 20.16Q106.15 17.88 108.05 16.55Q109.96 15.22 112.52 15.22L112.52 15.22Q114.76 15.22 116.42 16.43Q118.08 17.64 118.75 19.81L118.75 19.81L118.75 9.10L124.66 9.10L124.66 35L121.76 35Q120.36 35 119.55 34.21Q118.75 33.42 118.75 32.02L118.75 32.02L118.75 30.70Q118.08 32.83 116.42 34.04Q114.76 35.24 112.52 35.24ZM114.44 30.06L114.44 30.06Q115.60 30.06 116.58 29.50Q117.56 28.95 118.15 27.86Q118.75 26.77 118.75 25.23L118.75 25.23Q118.75 23.73 118.15 22.64Q117.56 21.56 116.58 20.96Q115.60 20.37 114.44 20.37L114.44 20.37Q113.25 20.37 112.27 20.96Q111.29 21.56 110.71 22.64Q110.14 23.73 110.14 25.23L110.14 25.23Q110.14 26.77 110.71 27.86Q111.29 28.95 112.29 29.50Q113.29 30.06 114.44 30.06ZM137.02 35.24L137.02 35.24Q134.39 35.24 132.33 34.35Q130.26 33.46 128.93 31.83Q127.60 30.20 127.15 28.04L127.15 28.04L132.92 26.74Q133.31 28.45 134.32 29.43Q135.34 30.41 136.77 30.41L136.77 30.41Q138.28 30.41 139.10 29.79Q139.92 29.16 139.92 28.11L139.92 28.11Q139.92 27.16 139.26 26.55Q138.59 25.93 137.51 25.52Q136.42 25.09 135.11 24.67Q133.80 24.25 132.48 23.73Q131.17 23.20 130.07 22.42Q128.97 21.63 128.30 20.44Q127.64 19.25 127.64 17.50L127.64 17.50Q127.64 15.19 128.76 13.54Q129.88 11.90 131.89 11.04Q133.90 10.18 136.56 10.18L136.56 10.18Q138.98 10.18 140.87 10.99Q142.76 11.79 143.95 13.21Q145.14 14.63 145.49 16.55L145.49 16.55L139.75 18.06Q139.47 16.55 138.59 15.77Q137.72 14.98 136.42 14.98L136.42 14.98Q135.65 14.98 135.02 15.24Q134.39 15.50 134.02 15.99Q133.66 16.48 133.66 17.22L133.66 17.22Q133.66 18.13 134.32 18.72Q134.99 19.32 136.11 19.76Q137.23 20.20 138.56 20.60Q139.89 21 141.20 21.52Q142.51 22.05 143.61 22.84Q144.72 23.63 145.40 24.80Q146.08 25.97 146.08 27.72L146.08 27.72Q146.08 29.79 144.91 31.48Q143.74 33.18 141.71 34.21Q139.68 35.24 137.02 35.24ZM154.10 35L148.18 35L148.18 9.10L154.10 9.10L154.10 19.63Q154.52 18.27 155.46 17.29Q156.41 16.31 157.65 15.77Q158.89 15.22 160.22 15.22L160.22 15.22Q162.46 15.22 164.11 16.24Q165.75 17.25 166.66 19.11Q167.57 20.96 167.57 23.52L167.57 23.52L167.57 35L161.66 35L161.66 24.50Q161.66 22.50 160.64 21.37Q159.63 20.23 157.91 20.23L157.91 20.23Q156.76 20.23 155.90 20.82Q155.04 21.42 154.57 22.47Q154.10 23.52 154.10 24.85L154.10 24.85L154.10 35ZM180.07 35.24L180.07 35.24Q177.93 35.24 175.99 34.58Q174.05 33.91 172.56 32.64Q171.07 31.36 170.21 29.54Q169.36 27.72 169.36 25.38L169.36 25.38Q169.36 23.13 170.18 21.28Q171.00 19.42 172.42 18.06Q173.84 16.69 175.71 15.96Q177.58 15.22 179.68 15.22L179.68 15.22Q181.40 15.22 182.95 15.68Q184.51 16.13 185.75 17.01Q187.00 17.88 187.71 19.07Q188.43 20.27 188.43 21.73L188.43 21.73Q188.43 23.59 187.38 24.81Q186.33 26.04 184.63 26.74Q182.94 27.44 180.92 27.74Q178.91 28.04 176.95 28L176.95 28Q176.71 28 176.37 27.98Q176.04 27.96 175.76 27.95Q175.48 27.93 175.34 27.93L175.34 27.93Q175.55 28.73 176.23 29.38Q176.92 30.03 177.97 30.41Q179.02 30.80 180.14 30.80L180.14 30.80Q181.26 30.80 182.29 30.41Q183.32 30.03 184.16 29.43Q185.00 28.84 185.60 28.11L185.60 28.11L189.38 31.08Q188.33 32.48 186.82 33.41Q185.32 34.34 183.58 34.79Q181.85 35.24 180.07 35.24ZM176.99 24.11L176.99 24.11Q177.93 24.11 178.95 24.01Q179.96 23.91 180.82 23.64Q181.68 23.38 182.22 22.91Q182.76 22.43 182.76 21.70L182.76 21.70Q182.76 21.10 182.34 20.65Q181.92 20.20 181.22 19.95Q180.52 19.70 179.72 19.70L179.72 19.70Q178.32 19.70 177.27 20.37Q176.22 21.03 175.66 22.03Q175.10 23.03 175.03 24.04L175.03 24.04Q175.34 24.08 175.88 24.10Q176.43 24.11 176.99 24.11ZM200.47 35.24L200.47 35.24Q198.34 35.24 196.39 34.58Q194.45 33.91 192.96 32.64Q191.48 31.36 190.62 29.54Q189.76 27.72 189.76 25.38L189.76 25.38Q189.76 23.13 190.58 21.28Q191.41 19.42 192.82 18.06Q194.24 16.69 196.11 15.96Q197.99 15.22 200.09 15.22L200.09 15.22Q201.80 15.22 203.36 15.68Q204.92 16.13 206.16 17.01Q207.40 17.88 208.12 19.07Q208.84 20.27 208.84 21.73L208.84 21.73Q208.84 23.59 207.79 24.81Q206.74 26.04 205.04 26.74Q203.34 27.44 201.33 27.74Q199.32 28.04 197.36 28L197.36 28Q197.11 28 196.78 27.98Q196.45 27.96 196.17 27.95Q195.89 27.93 195.75 27.93L195.75 27.93Q195.96 28.73 196.64 29.38Q197.32 30.03 198.37 30.41Q199.42 30.80 200.54 30.80L200.54 30.80Q201.66 30.80 202.69 30.41Q203.73 30.03 204.57 29.43Q205.41 28.84 206.00 28.11L206.00 28.11L209.78 31.08Q208.73 32.48 207.23 33.41Q205.72 34.34 203.99 34.79Q202.26 35.24 200.47 35.24ZM197.39 24.11L197.39 24.11Q198.34 24.11 199.35 24.01Q200.37 23.91 201.22 23.64Q202.08 23.38 202.62 22.91Q203.17 22.43 203.17 21.70L203.17 21.70Q203.17 21.10 202.75 20.65Q202.33 20.20 201.63 19.95Q200.93 19.70 200.12 19.70L200.12 19.70Q198.72 19.70 197.67 20.37Q196.62 21.03 196.06 22.03Q195.50 23.03 195.43 24.04L195.43 24.04Q195.75 24.08 196.29 24.10Q196.83 24.11 197.39 24.11ZM219.69 35.24L219.69 35.24Q216.47 35.24 214.75 33.48Q213.04 31.71 213.04 28.35L213.04 28.35L213.04 20.27L209.92 20.27L209.92 15.47L222.84 15.47L222.84 20.27L218.95 20.27L218.95 28.42Q218.95 29.26 219.49 29.73Q220.04 30.20 220.81 30.20L220.81 30.20Q221.16 30.20 221.45 30.12Q221.75 30.03 222.03 29.86L222.03 29.86L223.50 34.20Q222.66 34.65 221.73 34.95Q220.81 35.24 219.69 35.24ZM216.75 15.47L211.46 17.04L211.46 15.47Q212.23 15.47 212.72 14.98Q213.21 14.49 213.21 13.72L213.21 13.72L213.21 10.71L218.95 10.71L218.95 12.81Q218.95 13.30 218.71 13.88Q218.46 14.45 217.95 14.89Q217.45 15.33 216.75 15.47L216.75 15.47Z"/></g>
        
      </svg>
    